# Blender v2.90.1 OBJ File: 'Plane.blend'
# www.blender.org
mtllib Plane.mtl
o Cube
v 0.299318 0.947906 -1.149678
v 0.795994 -0.617488 -1.000000
v 1.000000 1.000000 1.000000
v 0.787493 -0.600487 1.000000
v -0.535371 0.943657 -1.150138
v -0.838495 -0.549486 -1.000000
v -1.000000 1.000000 1.000000
v -0.855495 -0.540985 1.000000
v 0.189579 0.177913 -3.357353
v -0.206777 0.166432 -3.336914
v 0.066172 0.385431 -3.188577
v -0.078383 0.377414 -3.190132
v -0.668489 1.240331 4.003654
v -0.668489 1.276769 3.986653
v 0.659989 1.259768 3.986653
v 0.651489 1.223331 4.003654
v 3.264981 0.214537 -0.401356
v 3.263845 0.154771 -0.405359
v 3.282510 0.215584 -0.302426
v 3.277981 0.160290 -0.300852
v -2.615852 0.047102 0.029985
v -2.631130 0.058415 0.174737
v -2.633284 0.141948 0.175387
v -2.623059 0.146951 0.046695
v -0.727991 0.982999 -1.000000
v 0.472983 0.991500 -1.000000
v -0.203248 0.333596 -3.342720
v 0.205899 0.346331 -3.335562
v 0.298842 0.987726 -1.160723
v 0.225667 1.032656 -1.240647
v -0.456261 1.028989 -1.240969
v -0.535847 0.983477 -1.161183
v 0.006762 0.501447 -3.154941
v 0.065696 0.425249 -3.199622
v -0.078859 0.417233 -3.201177
v -0.027619 0.500668 -3.155623
vt 0.625000 0.500000
vt 0.875000 0.500000
vt 0.875000 0.750000
vt 0.625000 0.750000
vt 0.625000 0.000000
vt 0.375000 0.000000
vt 0.375000 0.000000
vt 0.625000 0.000000
vt 0.125000 0.500000
vt 0.125000 0.750000
vt 0.125000 0.750000
vt 0.125000 0.500000
vt 0.375000 0.500000
vt 0.375000 0.750000
vt 0.375000 0.500000
vt 0.375000 0.750000
vt 0.375000 0.250000
vt 0.625000 0.250000
vt 0.625000 0.250000
vt 0.375000 0.250000
vt 0.625000 0.500000
vt 0.375000 0.500000
vt 0.125000 0.500000
vt 0.790967 0.500000
vt 0.839200 0.500000
vt 0.839200 0.500000
vt 0.790967 0.500000
vt 0.375000 0.750000
vt 0.625000 0.750000
vt 0.625000 1.000000
vt 0.375000 1.000000
vt 0.125000 0.750000
vt 0.875000 0.750000
vt 0.625000 0.500000
vt 0.625000 0.750000
vt 0.375000 0.000000
vt 0.625000 0.000000
vt 0.625000 0.250000
vt 0.375000 0.250000
vt 0.875000 0.500000
vt 0.875000 0.750000
vt 0.660630 0.500000
vt 0.708856 0.500000
vt 0.875000 0.500000
vt 0.708856 0.500000
vt 0.660630 0.500000
vt 0.676507 0.500000
vt 0.823152 0.500000
vt 0.758991 0.500000
vt 0.740693 0.500000
vn -0.0027 1.0000 -0.0062
vn -0.9892 -0.0894 0.1163
vn -0.3188 -0.9478 0.0040
vn -0.0389 -0.9992 0.0061
vn 0.2966 -0.9550 0.0094
vn -0.9690 0.0642 -0.2386
vn -0.0179 0.0486 -0.9987
vn -0.0296 -0.9514 -0.3065
vn -0.9774 -0.0672 -0.2003
vn 0.9699 0.1695 -0.1751
vn 0.0054 0.4223 0.9064
vn -0.0221 -0.8572 0.5146
vn 0.0051 0.9960 -0.0895
vn 0.9835 -0.1315 0.1239
vn 0.9873 -0.0454 -0.1522
vn 0.2833 0.9559 -0.0779
vn 0.4777 -0.0618 0.8764
vn 0.2211 0.0450 -0.9742
vn -0.9949 -0.0421 -0.0918
vn -0.4352 0.8981 -0.0628
vn -0.4938 0.0401 -0.8686
vn -0.4329 -0.0394 0.9006
vn -0.0060 0.9637 -0.2670
vn -0.0319 0.9629 -0.2681
vn -0.0115 0.9629 -0.2697
vn -0.0116 0.9642 -0.2649
vn 0.9939 -0.0182 -0.1086
vn -0.0019 0.2673 0.9636
vn 0.0252 -0.2669 -0.9634
vn -0.0048 0.8702 0.4926
vn -0.0133 0.4916 -0.8707
vn -0.7049 0.6271 -0.3314
vn 0.6891 0.6743 -0.2654
vn -0.0056 0.9637 -0.2670
usemtl Material
s off
f 26/1/1 25/2/1 7/3/1 3/4/1
f 7/5/2 8/6/2 13/7/2 14/8/2
f 6/9/3 8/10/3 22/11/3 21/12/3
f 6/9/4 2/13/4 4/14/4 8/10/4
f 4/14/5 2/13/5 18/15/5 20/16/5
f 6/17/6 25/18/6 27/19/6 10/20/6
f 10/20/7 27/19/7 28/21/7 9/22/7
f 2/13/8 6/9/8 10/23/8 9/22/8
f 12/24/9 5/25/9 32/26/9 35/27/9
f 26/1/10 2/13/10 9/22/10 28/21/10
f 16/28/11 15/29/11 14/30/11 13/31/11
f 8/10/12 4/14/12 16/28/12 13/32/12
f 3/4/13 7/3/13 14/33/13 15/29/13
f 4/14/14 3/4/14 15/29/14 16/28/14
f 18/15/15 17/34/15 19/35/15 20/16/15
f 26/1/16 3/4/16 19/35/16 17/34/16
f 3/4/17 4/14/17 20/16/17 19/35/17
f 2/13/18 26/1/18 17/34/18 18/15/18
f 22/36/19 23/37/19 24/38/19 21/39/19
f 7/3/20 25/2/20 24/40/20 23/41/20
f 25/18/21 6/17/21 21/39/21 24/38/21
f 8/6/22 7/5/22 23/37/22 22/36/22
f 1/42/23 5/25/23 25/2/23 26/1/23
f 12/24/24 11/43/24 28/21/24 27/44/24
f 5/25/25 12/24/25 27/44/25 25/2/25
f 11/43/26 1/42/26 26/1/26 28/21/26
f 1/42/27 11/43/27 34/45/27 29/46/27
f 5/25/28 1/42/28 29/46/28 32/26/28
f 11/43/29 12/24/29 35/27/29 34/45/29
f 32/26/30 29/46/30 30/47/30 31/48/30
f 36/49/31 33/50/31 34/45/31 35/27/31
f 31/48/32 36/49/32 35/27/32 32/26/32
f 29/46/33 34/45/33 33/50/33 30/47/33
f 31/48/34 30/47/34 33/50/34 36/49/34
